<mxfile host="app.diagrams.net" modified="2020-08-30T10:53:23.139Z" agent="5.0 (Windows NT 10.0; Win64; x64) AppleWebKit/537.36 (KHTML, like Gecko) Chrome/84.0.4147.135 Safari/537.36" etag="8ccgvGWXc8T8KQ1q3mrP" version="13.6.5" type="github">
  <diagram id="kgpKYQtTHZ0yAKxKKP6v" name="Page-1">
    <mxGraphModel dx="1221" dy="587" grid="1" gridSize="10" guides="1" tooltips="1" connect="1" arrows="1" fold="1" page="1" pageScale="1" pageWidth="850" pageHeight="1100" math="0" shadow="0" extFonts="Old Standard TT^https://fonts.googleapis.com/css?family=Old+Standard+TT">
      <root>
        <mxCell id="0" />
        <mxCell id="1" parent="0" />
        <mxCell id="8H_aosuaoS525BL20_1y-1" value="&lt;b&gt;&lt;font face=&quot;Old Standard TT&quot;&gt;Sequence Diagram: Schedule Task&lt;/font&gt;&lt;/b&gt;" style="shape=umlFrame;whiteSpace=wrap;html=1;width=220;height=30;" parent="1" vertex="1">
          <mxGeometry x="190" y="30" width="850" height="880" as="geometry" />
        </mxCell>
        <mxCell id="BJgerjKeEdl1azDdf-ck-2" value="" style="endArrow=none;dashed=1;html=1;" parent="1" edge="1">
          <mxGeometry width="50" height="50" relative="1" as="geometry">
            <mxPoint x="250" y="887" as="sourcePoint" />
            <mxPoint x="250" y="158" as="targetPoint" />
          </mxGeometry>
        </mxCell>
        <mxCell id="won6xVCmw4BPkQLx-nKb-10" value="&lt;font face=&quot;Old Standard TT&quot; size=&quot;1&quot;&gt;&lt;b style=&quot;font-size: 14px&quot;&gt;:CronTab&lt;/b&gt;&lt;/font&gt;" style="shape=umlLifeline;perimeter=lifelinePerimeter;whiteSpace=wrap;html=1;container=1;collapsible=0;recursiveResize=0;outlineConnect=0;" parent="1" vertex="1">
          <mxGeometry x="700" y="90" width="120" height="798" as="geometry" />
        </mxCell>
        <mxCell id="won6xVCmw4BPkQLx-nKb-11" value="&lt;font face=&quot;Old Standard TT&quot; size=&quot;1&quot;&gt;&lt;b style=&quot;font-size: 13px&quot;&gt;:PostgreSQL&lt;/b&gt;&lt;/font&gt;" style="shape=umlLifeline;perimeter=lifelinePerimeter;whiteSpace=wrap;html=1;container=1;collapsible=0;recursiveResize=0;outlineConnect=0;" parent="1" vertex="1">
          <mxGeometry x="880" y="90" width="100" height="798" as="geometry" />
        </mxCell>
        <mxCell id="tm0qoD8EZ-h7sCKLFaxw-24" value="" style="html=1;points=[];perimeter=orthogonalPerimeter;strokeWidth=1;fontFamily=Old Standard TT;fontSize=14;" parent="won6xVCmw4BPkQLx-nKb-11" vertex="1">
          <mxGeometry x="45" y="581" width="10" height="60" as="geometry" />
        </mxCell>
        <mxCell id="tm0qoD8EZ-h7sCKLFaxw-29" value="" style="html=1;points=[];perimeter=orthogonalPerimeter;strokeWidth=1;fontFamily=Old Standard TT;fontSize=14;" parent="won6xVCmw4BPkQLx-nKb-11" vertex="1">
          <mxGeometry x="50" y="611" width="10" height="21" as="geometry" />
        </mxCell>
        <mxCell id="tm0qoD8EZ-h7sCKLFaxw-30" value="5.1: add&lt;br&gt;cronjob" style="edgeStyle=orthogonalEdgeStyle;html=1;align=left;spacingLeft=2;endArrow=block;rounded=0;entryX=1;entryY=0;labelBackgroundColor=none;strokeWidth=1;fontFamily=Old Standard TT;fontSize=14;" parent="won6xVCmw4BPkQLx-nKb-11" target="tm0qoD8EZ-h7sCKLFaxw-29" edge="1">
          <mxGeometry relative="1" as="geometry">
            <mxPoint x="55" y="591" as="sourcePoint" />
            <Array as="points">
              <mxPoint x="80" y="591" />
            </Array>
          </mxGeometry>
        </mxCell>
        <mxCell id="won6xVCmw4BPkQLx-nKb-28" value="&lt;font face=&quot;Old Standard TT&quot; style=&quot;font-size: 13px&quot;&gt;&lt;b&gt;Actor&lt;/b&gt;&lt;/font&gt;" style="shape=umlActor;verticalLabelPosition=bottom;verticalAlign=top;html=1;" parent="1" vertex="1">
          <mxGeometry x="235" y="80" width="30" height="60" as="geometry" />
        </mxCell>
        <mxCell id="won6xVCmw4BPkQLx-nKb-9" value="&lt;font face=&quot;Old Standard TT&quot; size=&quot;1&quot;&gt;&lt;b style=&quot;font-size: 14px&quot;&gt;:Flask App&lt;/b&gt;&lt;/font&gt;" style="shape=umlLifeline;perimeter=lifelinePerimeter;whiteSpace=wrap;html=1;container=1;collapsible=0;recursiveResize=0;outlineConnect=0;" parent="1" vertex="1">
          <mxGeometry x="360" y="90" width="100" height="798" as="geometry" />
        </mxCell>
        <mxCell id="BJgerjKeEdl1azDdf-ck-3" value="" style="html=1;points=[];perimeter=orthogonalPerimeter;" parent="won6xVCmw4BPkQLx-nKb-9" vertex="1">
          <mxGeometry x="45" y="192" width="10" height="556" as="geometry" />
        </mxCell>
        <mxCell id="BJgerjKeEdl1azDdf-ck-6" value="&lt;font face=&quot;Old Standard TT&quot; style=&quot;font-size: 14px&quot;&gt;1: POST&amp;nbsp; &lt;br&gt;/add_cron_job&lt;/font&gt;" style="html=1;verticalAlign=bottom;endArrow=block;labelBackgroundColor=none;" parent="1" edge="1">
          <mxGeometry width="80" relative="1" as="geometry">
            <mxPoint x="255" y="284" as="sourcePoint" />
            <mxPoint x="405" y="284" as="targetPoint" />
          </mxGeometry>
        </mxCell>
        <mxCell id="BJgerjKeEdl1azDdf-ck-7" value="" style="html=1;points=[];perimeter=orthogonalPerimeter;" parent="1" vertex="1">
          <mxGeometry x="245" y="282" width="10" height="556" as="geometry" />
        </mxCell>
        <mxCell id="won6xVCmw4BPkQLx-nKb-49" value="&lt;font face=&quot;Old Standard TT&quot; size=&quot;1&quot;&gt;&lt;b style=&quot;font-size: 14px&quot;&gt;:CronManager&lt;/b&gt;&lt;/font&gt;" style="shape=umlLifeline;perimeter=lifelinePerimeter;whiteSpace=wrap;html=1;container=1;collapsible=0;recursiveResize=0;outlineConnect=0;" parent="1" vertex="1">
          <mxGeometry x="520" y="90" width="120" height="798" as="geometry" />
        </mxCell>
        <mxCell id="tm0qoD8EZ-h7sCKLFaxw-3" value="" style="html=1;points=[];perimeter=orthogonalPerimeter;" parent="won6xVCmw4BPkQLx-nKb-49" vertex="1">
          <mxGeometry x="235" y="478" width="10" height="20" as="geometry" />
        </mxCell>
        <mxCell id="tm0qoD8EZ-h7sCKLFaxw-10" value="" style="html=1;points=[];perimeter=orthogonalPerimeter;fontFamily=Old Standard TT;fontSize=14;" parent="won6xVCmw4BPkQLx-nKb-49" vertex="1">
          <mxGeometry x="55" y="409" width="10" height="51" as="geometry" />
        </mxCell>
        <mxCell id="tm0qoD8EZ-h7sCKLFaxw-18" value="" style="html=1;points=[];perimeter=orthogonalPerimeter;strokeWidth=1;fontFamily=Old Standard TT;fontSize=14;" parent="won6xVCmw4BPkQLx-nKb-49" vertex="1">
          <mxGeometry x="55" y="211" width="10" height="69" as="geometry" />
        </mxCell>
        <mxCell id="tm0qoD8EZ-h7sCKLFaxw-21" value="" style="html=1;points=[];perimeter=orthogonalPerimeter;fontFamily=Old Standard TT;fontSize=14;" parent="won6xVCmw4BPkQLx-nKb-49" vertex="1">
          <mxGeometry x="55" y="333" width="10" height="48" as="geometry" />
        </mxCell>
        <mxCell id="tm0qoD8EZ-h7sCKLFaxw-22" value="2.1: return&lt;br&gt;(shell_script_file)" style="html=1;verticalAlign=bottom;endArrow=open;dashed=1;endSize=8;exitX=0;exitY=0.95;labelBackgroundColor=none;fontFamily=Old Standard TT;fontSize=14;" parent="won6xVCmw4BPkQLx-nKb-49" edge="1">
          <mxGeometry relative="1" as="geometry">
            <mxPoint x="-105" y="380" as="targetPoint" />
            <mxPoint x="55" y="380" as="sourcePoint" />
          </mxGeometry>
        </mxCell>
        <mxCell id="tm0qoD8EZ-h7sCKLFaxw-23" value="2: create_cron_script()" style="html=1;verticalAlign=bottom;endArrow=block;entryX=0;entryY=0;labelBackgroundColor=none;fontFamily=Old Standard TT;fontSize=14;" parent="won6xVCmw4BPkQLx-nKb-49" target="tm0qoD8EZ-h7sCKLFaxw-21" edge="1">
          <mxGeometry relative="1" as="geometry">
            <mxPoint x="-105" y="333" as="sourcePoint" />
          </mxGeometry>
        </mxCell>
        <mxCell id="tm0qoD8EZ-h7sCKLFaxw-4" value="&lt;font style=&quot;font-size: 14px&quot; face=&quot;Old Standard TT&quot;&gt;4: activate_cron_job()&lt;/font&gt;" style="html=1;verticalAlign=bottom;endArrow=block;labelBackgroundColor=none;" parent="1" edge="1">
          <mxGeometry x="0.4412" relative="1" as="geometry">
            <mxPoint x="415" y="568" as="sourcePoint" />
            <mxPoint x="755" y="568" as="targetPoint" />
            <mxPoint as="offset" />
          </mxGeometry>
        </mxCell>
        <mxCell id="tm0qoD8EZ-h7sCKLFaxw-9" value="[isValid == True]" style="text;align=center;fontStyle=0;verticalAlign=middle;spacingLeft=3;spacingRight=3;strokeColor=none;rotatable=0;points=[[0,0.5],[1,0.5]];portConstraint=eastwest;fontFamily=Old Standard TT;fontSize=14;" parent="1" vertex="1">
          <mxGeometry x="290" y="400" width="80" height="26" as="geometry" />
        </mxCell>
        <mxCell id="tm0qoD8EZ-h7sCKLFaxw-12" value="3.1: return&lt;br&gt;(converted schedule)" style="html=1;verticalAlign=bottom;endArrow=open;dashed=1;endSize=8;exitX=0;exitY=0.95;labelBackgroundColor=none;fontFamily=Old Standard TT;fontSize=14;" parent="1" edge="1">
          <mxGeometry relative="1" as="geometry">
            <mxPoint x="415" y="549" as="targetPoint" />
            <mxPoint x="575" y="549" as="sourcePoint" />
          </mxGeometry>
        </mxCell>
        <mxCell id="tm0qoD8EZ-h7sCKLFaxw-11" value="3: convert_schedule()" style="html=1;verticalAlign=bottom;endArrow=block;entryX=0;entryY=0;labelBackgroundColor=none;fontFamily=Old Standard TT;fontSize=14;" parent="1" edge="1">
          <mxGeometry relative="1" as="geometry">
            <mxPoint x="415" y="499" as="sourcePoint" />
            <mxPoint x="575" y="499" as="targetPoint" />
          </mxGeometry>
        </mxCell>
        <mxCell id="tm0qoD8EZ-h7sCKLFaxw-13" value="" style="html=1;points=[];perimeter=orthogonalPerimeter;fontFamily=Old Standard TT;fontSize=14;" parent="1" vertex="1">
          <mxGeometry x="575" y="600" width="10" height="48" as="geometry" />
        </mxCell>
        <mxCell id="tm0qoD8EZ-h7sCKLFaxw-14" value="4.1: return&lt;br&gt;(next_run_date)" style="html=1;verticalAlign=bottom;endArrow=open;dashed=1;endSize=8;exitX=0;exitY=0.95;labelBackgroundColor=none;fontFamily=Old Standard TT;fontSize=14;" parent="1" edge="1">
          <mxGeometry relative="1" as="geometry">
            <mxPoint x="415" y="647" as="targetPoint" />
            <mxPoint x="575" y="647" as="sourcePoint" />
          </mxGeometry>
        </mxCell>
        <mxCell id="tm0qoD8EZ-h7sCKLFaxw-15" value="4: calculate_next_run()" style="html=1;verticalAlign=bottom;endArrow=block;entryX=0;entryY=0;labelBackgroundColor=none;fontFamily=Old Standard TT;fontSize=14;" parent="1" target="tm0qoD8EZ-h7sCKLFaxw-13" edge="1">
          <mxGeometry relative="1" as="geometry">
            <mxPoint x="415" y="600" as="sourcePoint" />
          </mxGeometry>
        </mxCell>
        <mxCell id="tm0qoD8EZ-h7sCKLFaxw-17" value="[isValid == Flase]" style="text;align=center;fontStyle=0;verticalAlign=middle;spacingLeft=3;spacingRight=3;strokeColor=none;rotatable=0;points=[[0,0.5],[1,0.5]];portConstraint=eastwest;fontFamily=Old Standard TT;fontSize=14;" parent="1" vertex="1">
          <mxGeometry x="260" y="766" width="140" height="26" as="geometry" />
        </mxCell>
        <mxCell id="tm0qoD8EZ-h7sCKLFaxw-19" value="1.1: check_validity(job)" style="html=1;verticalAlign=bottom;endArrow=block;entryX=0;entryY=0;labelBackgroundColor=none;fontFamily=Old Standard TT;fontSize=14;strokeWidth=1;" parent="1" source="BJgerjKeEdl1azDdf-ck-3" target="tm0qoD8EZ-h7sCKLFaxw-18" edge="1">
          <mxGeometry relative="1" as="geometry">
            <mxPoint x="505" y="301" as="sourcePoint" />
          </mxGeometry>
        </mxCell>
        <mxCell id="tm0qoD8EZ-h7sCKLFaxw-20" value="1.2: return(isValid)" style="html=1;verticalAlign=bottom;endArrow=open;endSize=8;labelBackgroundColor=none;fontFamily=Old Standard TT;fontSize=14;strokeWidth=1;dashed=1;" parent="1" edge="1">
          <mxGeometry relative="1" as="geometry">
            <mxPoint x="415" y="365.9999999999999" as="targetPoint" />
            <mxPoint x="575" y="365.9999999999999" as="sourcePoint" />
          </mxGeometry>
        </mxCell>
        <mxCell id="tm0qoD8EZ-h7sCKLFaxw-25" value="5: add(cronjob)" style="html=1;verticalAlign=bottom;endArrow=block;entryX=0;entryY=0;labelBackgroundColor=none;strokeWidth=1;fontFamily=Old Standard TT;fontSize=14;" parent="1" target="tm0qoD8EZ-h7sCKLFaxw-24" edge="1">
          <mxGeometry relative="1" as="geometry">
            <mxPoint x="415" y="671" as="sourcePoint" />
          </mxGeometry>
        </mxCell>
        <mxCell id="tm0qoD8EZ-h7sCKLFaxw-26" value="5.2: return(cronjob)" style="html=1;verticalAlign=bottom;endArrow=open;dashed=1;endSize=8;exitX=0;exitY=0.95;labelBackgroundColor=none;strokeWidth=1;fontFamily=Old Standard TT;fontSize=14;" parent="1" edge="1">
          <mxGeometry relative="1" as="geometry">
            <mxPoint x="415" y="730" as="targetPoint" />
            <mxPoint x="925" y="730" as="sourcePoint" />
          </mxGeometry>
        </mxCell>
        <mxCell id="tm0qoD8EZ-h7sCKLFaxw-34" value="6.1: return&lt;br&gt;(invalid job error)" style="html=1;verticalAlign=bottom;endArrow=open;dashed=1;endSize=8;labelBackgroundColor=none;strokeWidth=1;fontFamily=Old Standard TT;fontSize=14;" parent="1" edge="1">
          <mxGeometry relative="1" as="geometry">
            <mxPoint x="405" y="837" as="sourcePoint" />
            <mxPoint x="255" y="837" as="targetPoint" />
          </mxGeometry>
        </mxCell>
        <mxCell id="tm0qoD8EZ-h7sCKLFaxw-35" value="5.3: return(cronjob)" style="html=1;verticalAlign=bottom;endArrow=open;dashed=1;endSize=8;labelBackgroundColor=none;strokeWidth=1;fontFamily=Old Standard TT;fontSize=14;entryX=1.1;entryY=0.8;entryDx=0;entryDy=0;entryPerimeter=0;" parent="1" edge="1">
          <mxGeometry x="0.0067" relative="1" as="geometry">
            <mxPoint x="405" y="735.8000000000002" as="sourcePoint" />
            <mxPoint x="256" y="735.8000000000002" as="targetPoint" />
            <mxPoint as="offset" />
          </mxGeometry>
        </mxCell>
        <mxCell id="tm0qoD8EZ-h7sCKLFaxw-16" value="" style="line;strokeWidth=2;fillColor=none;align=left;verticalAlign=middle;spacingTop=-1;spacingLeft=3;spacingRight=3;rotatable=0;labelPosition=right;points=[];portConstraint=eastwest;fontFamily=Old Standard TT;fontSize=14;dashed=1;" parent="1" vertex="1">
          <mxGeometry x="210" y="758" width="810" height="8" as="geometry" />
        </mxCell>
        <mxCell id="scSC1ONJ-kp-0vuA-Wr2-29" value="Authenticate" style="text;align=center;fontStyle=1;verticalAlign=middle;spacingLeft=3;spacingRight=3;strokeColor=none;rotatable=0;points=[[0,0.5],[1,0.5]];portConstraint=eastwest;fontFamily=Old Standard TT;fontSize=14;fillColor=#ffffff;" parent="1" vertex="1">
          <mxGeometry x="211" y="174" width="778" height="58" as="geometry" />
        </mxCell>
        <mxCell id="scSC1ONJ-kp-0vuA-Wr2-28" value="ref" style="shape=umlFrame;whiteSpace=wrap;html=1;strokeWidth=1;fontFamily=Old Standard TT;fontSize=14;" parent="1" vertex="1">
          <mxGeometry x="210" y="173" width="780" height="60" as="geometry" />
        </mxCell>
        <mxCell id="tm0qoD8EZ-h7sCKLFaxw-8" value="&lt;font face=&quot;Old Standard TT&quot; style=&quot;font-size: 14px&quot;&gt;alt&lt;/font&gt;" style="shape=umlFrame;whiteSpace=wrap;html=1;" parent="1" vertex="1">
          <mxGeometry x="210" y="390" width="810" height="478" as="geometry" />
        </mxCell>
      </root>
    </mxGraphModel>
  </diagram>
</mxfile>
